<svg xmlns="http://www.w3.org/2000/svg" viewBox="0 0 1440 235" style="transform: scaleY(-1);">
    <path fill="#222633" fill-opacity="1" d="M0,160L24,154.7C48,149,96,139,144,160C192,181,240,235,288,234.7C336,235,384,181,432,144C480,107,528,85,576,96C624,107,672,149,720,149.3C768,149,816,107,864,90.7C912,75,960,85,1008,112C1056,139,1104,181,1152,176C1200,171,1248,117,1296,117.3C1344,117,1392,171,1416,197.3L1440,224L1440,0L1416,0C1392,0,1344,0,1296,0C1248,0,1200,0,1152,0C1104,0,1056,0,1008,0C960,0,912,0,864,0C816,0,768,0,720,0C672,0,624,0,576,0C528,0,480,0,432,0C384,0,336,0,288,0C240,0,192,0,144,0C96,0,48,0,24,0L0,0Z"></path>
</svg>