<svg xmlns="http://www.w3.org/2000/svg" viewBox="0 0 1440 243">
    <path fill="#222633" fill-opacity="1" d="M0,192L18.5,181.3C36.9,171,74,149,111,138.7C147.7,128,185,128,222,160C258.5,192,295,256,332,240C369.2,224,406,128,443,122.7C480,117,517,203,554,213.3C590.8,224,628,160,665,160C701.5,160,738,224,775,234.7C812.3,245,849,203,886,165.3C923.1,128,960,96,997,69.3C1033.8,43,1071,21,1108,48C1144.6,75,1182,149,1218,165.3C1255.4,181,1292,139,1329,138.7C1366.2,139,1403,181,1422,202.7L1440,224L1440,0L1421.5,0C1403.1,0,1366,0,1329,0C1292.3,0,1255,0,1218,0C1181.5,0,1145,0,1108,0C1070.8,0,1034,0,997,0C960,0,923,0,886,0C849.2,0,812,0,775,0C738.5,0,702,0,665,0C627.7,0,591,0,554,0C516.9,0,480,0,443,0C406.2,0,369,0,332,0C295.4,0,258,0,222,0C184.6,0,148,0,111,0C73.8,0,37,0,18,0L0,0Z"></path>
</svg>