<?xml version="1.0" standalone="no"?><svg xmlns="http://www.w3.org/2000/svg" viewBox="0 0 1440 320"><path fill="#222633" fill-opacity="1" d="M0,192L18.5,181.3C36.9,171,74,149,111,138.7C147.7,128,185,128,222,160C258.5,192,295,256,332,240C369.2,224,406,128,443,122.7C480,117,517,203,554,213.3C590.8,224,628,160,665,160C701.5,160,738,224,775,234.7C812.3,245,849,203,886,165.3C923.1,128,960,96,997,69.3C1033.8,43,1071,21,1108,48C1144.6,75,1182,149,1218,165.3C1255.4,181,1292,139,1329,138.7C1366.2,139,1403,181,1422,202.7L1440,224L1440,320L1421.5,320C1403.1,320,1366,320,1329,320C1292.3,320,1255,320,1218,320C1181.5,320,1145,320,1108,320C1070.8,320,1034,320,997,320C960,320,923,320,886,320C849.2,320,812,320,775,320C738.5,320,702,320,665,320C627.7,320,591,320,554,320C516.9,320,480,320,443,320C406.2,320,369,320,332,320C295.4,320,258,320,222,320C184.6,320,148,320,111,320C73.8,320,37,320,18,320L0,320Z"></path></svg>